# xmcd
#
# Track frame offsets: 
#        150
#        12312
#        26576
#        48259
#        63249
#        78788
#        88976
#        103693
#        122095
#        137161
#
# Disc length: 2034 seconds
#
# Revision: 0
# Processed by: cddbd v1.5.2PL0 Copyright (c) Steve Scherf et al.
# Submitted via: ExactAudioCopy v1.3
#
DISCID=7c07f00a
DTITLE=Pistol Pete and Reverend Jimbo  - Blues On The Border Rio Grande
DYEAR=2010
DGENRE=Blues-Rock
TTITLE0=Ann Marie
TTITLE1=Unlucky As Hell
TTITLE2=Obituary Blues
TTITLE3=Touch Of White
TTITLE4=Voodoo Doll
TTITLE5=April
TTITLE6=Paper Wings
TTITLE7=Jealous Husband Blues
TTITLE8=Word Of The Lord Blues
TTITLE9=Voodoo Doll (Alternate)
EXTD=
EXTT0=
EXTT1=
EXTT2=
EXTT3=
EXTT4=
EXTT5=
EXTT6=
EXTT7=
EXTT8=
EXTT9=
PLAYORDER=
